# xmcd CD database file
#
# Track frame offsets:
#	150
#	17227
#	34291
#	51354
#	68410
#
# Disc length: 1138 seconds
#
# Revision: 0
# Processed by: cddbd v1.5.1PL0 Copyright (c) Steve Scherf et al.
# Submitted via: CDex 1.51
#
DISCID=3d047005
DTITLE=GALAY - 道産子シーサー
DYEAR=2002
DGENRE=Rock
TTITLE0=道産子シーサー
TTITLE1=道産子シーサー (Remix)
TTITLE2=道産子シーサー (テルオ Only version)
TTITLE3=道産子シーサー (Instrumental)
TTITLE4=道産子シーサー (Chorus)
EXTD=YEAR: 2002
EXTT0=
EXTT1=
EXTT2=
EXTT3=
EXTT4=
PLAYORDER=
